# xmcd CD database file
#
# Track frame offsets:
#	150
#	19192
#	43998
#
# Disc length: 843 seconds
#
# Revision: 2
# Processed by: cddbd v1.5.1PL0 Copyright (c) Steve Scherf et al.
# Submitted via: CDex 1.51
#
DISCID=21034903
DTITLE=Little Barrie - we are little barrie
DYEAR=2005
DGENRE=Rock
TTITLE0=Buy My Style
TTITLE1=Mud Sticks
TTITLE2=video
EXTD=YEAR: 2005
EXTT0=
EXTT1=
EXTT2=
PLAYORDER=
